<svg xmlns="http://www.w3.org/2000/svg" xmlns:xlink="http://www.w3.org/1999/xlink" viewBox="0,0,256,256" width="48px" height="48px"><defs><linearGradient x1="6.968" y1="6.968" x2="36.942" y2="36.942" gradientUnits="userSpaceOnUse" id="color-1"><stop offset="0" stop-color="#0047ff"></stop><stop offset="1" stop-color="#6691ff"></stop></linearGradient><linearGradient x1="33.2" y1="33.2" x2="39.98" y2="39.98" gradientUnits="userSpaceOnUse" id="color-2"><stop offset="0" stop-color="#43e6fc"></stop><stop offset="0.116" stop-color="#f19576"></stop><stop offset="0.595" stop-color="#b38bfa"></stop><stop offset="1" stop-color="#ff79f2"></stop></linearGradient><linearGradient x1="24.595" y1="24.595" x2="33.244" y2="33.244" gradientUnits="userSpaceOnUse" id="color-3"><stop offset="0" stop-color="#4b4b4b"></stop><stop offset="1" stop-color="#3b3b3b"></stop></linearGradient><linearGradient x1="16.1118" y1="1.3123" x2="16.1118" y2="6.8007" gradientUnits="userSpaceOnUse" id="color-4"><stop offset="0" stop-color="#dedede"></stop><stop offset="1" stop-color="#d6d6d6"></stop></linearGradient></defs><g fill="none" fill-rule="nonzero" stroke="none" stroke-width="1" stroke-linecap="butt" stroke-linejoin="miter" stroke-miterlimit="10" stroke-dasharray="" stroke-dashoffset="0" font-family="none" font-weight="none" font-size="none" text-anchor="none" style="mix-blend-mode: normal"><g transform="scale(5.33333,5.33333)"><path d="M32,42h-24c-1.105,0 -2,-0.895 -2,-2v-32c0,-1.105 0.895,-2 2,-2h32c1.105,0 2,0.895 2,2v24z" fill="url(#color-1)"></path><path d="M40,42h-16l18,-18v16c0,1.105 -0.895,2 -2,2z" fill="url(#color-2)"></path><path d="M26,24h16l-18,18v-16c0,-1.105 0.895,-2 2,-2z" fill="url(#color-3)"></path></g></g><g fill="none" fill-rule="nonzero" stroke="none" stroke-width="1" stroke-linecap="butt" stroke-linejoin="miter" stroke-miterlimit="10" stroke-dasharray="" stroke-dashoffset="0" font-family="none" font-weight="none" font-size="none" text-anchor="none" style="mix-blend-mode: normal"><g transform="translate(157,36.9994) scale(3.20002,3.20002)" id="overlay"><path d="M0.508,17.985l-0.508,2.015l2.014,-0.508l-0.014,-1.492z" fill="#787878"></path><path d="M1.003,16.016l-0.496,1.969l1.507,1.508l1.97,-0.496l0.418,-3.456z" fill="#f0f0f0"></path><path d="M16.333,6.648l-12.348,12.348l-2.981,-2.981l12.347,-12.348l2.649,0.333z" fill="#edbe00"></path><path d="M13.349,3.667l2.543,-2.544l2.108,0.877l0.875,2.104l-2.543,2.544z" fill="url(#color-4)"></path><path d="M19.781,2.141l-1.922,-1.921c-0.292,-0.293 -0.768,-0.293 -1.061,0l-0.904,0.905l2.981,2.981l0.905,-0.904c0.293,-0.294 0.293,-0.768 0.001,-1.061" fill="#c94f60"></path></g></g><g fill="#ffffff" fill-rule="nonzero" stroke="none" stroke-width="1" stroke-linecap="butt" stroke-linejoin="miter" stroke-miterlimit="10" stroke-dasharray="" stroke-dashoffset="0" font-family="none" font-weight="none" font-size="none" text-anchor="none" style="mix-blend-mode: normal"><g><path d="M71.79333,41.05167v37.91h-7.81l-15.21,-24.94v24.94h-7.81v-37.91h7.81l15.23,25v-25zM76.95333,64.95167v-0.34c0,-2.79333 0.53667,-5.28333 1.61,-7.47c1.07333,-2.18667 2.62333,-3.88 4.65,-5.08c2.02,-1.19333 4.36667,-1.79 7.04,-1.79v0c3.80667,0 6.91,1.16 9.31,3.48c2.40667,2.32667 3.75,5.48667 4.03,9.48v0l0.05,1.93c0,4.32667 -1.20667,7.79333 -3.62,10.4c-2.41333,2.61333 -5.65333,3.92 -9.72,3.92c-4.06,0 -7.3,-1.3 -9.72,-3.9c-2.42,-2.60667 -3.63,-6.15 -3.63,-10.63zM84.47333,65.16167v0c0,2.67333 0.50333,4.71667 1.51,6.13c1.00667,1.42 2.44667,2.13 4.32,2.13v0c1.82667,0 3.25333,-0.7 4.28,-2.1c1.02,-1.4 1.53,-3.63667 1.53,-6.71v0c0,-2.62 -0.51,-4.65 -1.53,-6.09c-1.02667,-1.44 -2.47,-2.16 -4.33,-2.16v0c-1.84,0 -3.26333,0.71667 -4.27,2.15c-1.00667,1.43333 -1.51,3.65 -1.51,6.65zM109.76333,43.86167h7.52v6.93h4.82v5.52h-4.82v14.06c0,1.04 0.2,1.78667 0.6,2.24c0.4,0.45333 1.16333,0.68 2.29,0.68v0c0.83333,0 1.57333,-0.06333 2.22,-0.19v0v5.71c-1.48,0.44667 -3,0.67 -4.56,0.67v0c-5.28,0 -7.97,-2.66333 -8.07,-7.99v0v-15.18h-4.12v-5.52h4.12zM139.26333,79.48167v0c-4.13333,0 -7.49667,-1.26667 -10.09,-3.8c-2.59333,-2.53333 -3.89,-5.91 -3.89,-10.13v0v-0.73c0,-2.82667 0.54667,-5.35667 1.64,-7.59c1.09333,-2.22667 2.64333,-3.94333 4.65,-5.15c2.00667,-1.20667 4.29333,-1.81 6.86,-1.81v0c3.85333,0 6.88667,1.21333 9.1,3.64c2.21333,2.43333 3.32,5.88 3.32,10.34v0v3.07h-17.94c0.24,1.84 0.97333,3.31667 2.2,4.43c1.22667,1.11333 2.77667,1.67 4.65,1.67v0c2.9,0 5.16333,-1.05 6.79,-3.15v0l3.7,4.14c-1.12667,1.59333 -2.65333,2.83667 -4.58,3.73c-1.92667,0.89333 -4.06333,1.34 -6.41,1.34zM138.40333,56.36167v0c-1.49333,0 -2.70333,0.50333 -3.63,1.51c-0.92667,1.00667 -1.52,2.44667 -1.78,4.32v0h10.47v-0.6c-0.04,-1.66667 -0.49333,-2.95333 -1.36,-3.86c-0.86667,-0.91333 -2.1,-1.37 -3.7,-1.37zM170.38333,71.18167v0c0,-0.92 -0.45333,-1.64667 -1.36,-2.18c-0.91333,-0.52667 -2.37667,-1 -4.39,-1.42v0c-6.7,-1.40667 -10.05,-4.25333 -10.05,-8.54v0c0,-2.5 1.03667,-4.58667 3.11,-6.26c2.07333,-1.67333 4.78667,-2.51 8.14,-2.51v0c3.57333,0 6.43333,0.84 8.58,2.52c2.14,1.68667 3.21,3.87333 3.21,6.56v0h-7.52c0,-1.07333 -0.35,-1.96333 -1.05,-2.67c-0.69333,-0.7 -1.77667,-1.05 -3.25,-1.05v0c-1.26667,0 -2.24667,0.28667 -2.94,0.86c-0.7,0.57333 -1.05,1.30333 -1.05,2.19v0c0,0.83333 0.39667,1.50667 1.19,2.02c0.78667,0.50667 2.12,0.94667 4,1.32c1.87333,0.37333 3.45333,0.79667 4.74,1.27v0c3.97333,1.45333 5.96,3.97667 5.96,7.57v0c0,2.57333 -1.10333,4.65333 -3.31,6.24c-2.2,1.58667 -5.04667,2.38 -8.54,2.38v0c-2.36,0 -4.45667,-0.42 -6.29,-1.26c-1.83333,-0.84 -3.27,-1.99333 -4.31,-3.46c-1.04,-1.46667 -1.56,-3.05 -1.56,-4.75v0h7.14c0.06667,1.33333 0.56,2.35667 1.48,3.07c0.92,0.71333 2.15333,1.07 3.7,1.07v0c1.44,0 2.53,-0.27333 3.27,-0.82c0.73333,-0.55333 1.1,-1.27 1.1,-2.15z"></path></g></g></svg>